<svg xmlns="http://www.w3.org/2000/svg" width="78" height="78" viewBox="0 0 78 78"><defs><style>.a,.d{fill:#f1f9ff;}.b{fill:#7fc4fd;}.c{fill:#fff;}.d,.e,.g{stroke:#fff;}.d,.e{stroke-miterlimit:10;}.d{stroke-width:1.5px;}.e,.g{fill:none;}.e{stroke-width:2px;}.f{fill:#2f8dde;}.g{stroke-width:3px;}</style></defs><g transform="translate(0.5 0.5)"><circle class="a" cx="37.5" cy="37.5" r="37.5" transform="translate(1.08 1)"/><path class="b" d="M70.54,58H6.46a37.52,37.52,0,0,0,64.08,0Z"/><path class="c" d="M61.4,60.18,61.24,60a.16.16,0,0,0,.16.18Z"/><path class="c" d="M19.75,60.25Z"/><path class="c" d="M55,54.3Z"/><path class="c" d="M63.4,54.78c-2.2-.21-2.79-1-5.07-.7A24.47,24.47,0,0,0,55,54.3c-.5.64-1.39,0-2,.55l-.23-.36c-.21.18-.45.3-.66.11v-.11c-.3.27-.65.11-.8.25v-.11h-.37l.06-.15a2.12,2.12,0,0,1-1.58.18v.43c-1-.49-1.42.42-2.36-.16v-.11c-1.19,1.15-1.88-.78-3.1.31.15-.13-.07-.22,0-.33-.57.13-1.17.19-1.18,1-.41,0-.33-.27-.39-.6,0,.37-.35.53-.67.55l.14-.14-.92.13.18.7c-.48-.2-.12-.86-.59-.69v.59c-.68-.12-1.07-1-1.72-1.44-2.72-.25-5.64,1.25-8.16.21l-.11-.44c-.05-.64-.7,1-.8.36l-.29.29c-.08-.11-.26-.23-.11-.38-.27,0-.28.08-.47.28l-.3-.4c-1.07-.31-2,.46-3.11.3-1.35-.81-3.9-.06-5.37.37-2.07,1-4.47-1.6-6.58-.5-.07-.09-.25.12-.25.19l-1.94-.09S2,54.94,9.12,60.27v.14c1.06.34,1.73.42,2.46-.29.11.86.87.09,1.12.37v.07c.65-.67,1.33.55,2,0,0,.07,0,.3-.18.32.45-.11,1.07-.3,1.1.2,1.09-.13,2.6.1,3.3-.7l-.05.14c.39-.55.51-.08.95-.36,0,.07.06.1.05.13.43-.54,1.26-.09,1.61-.31v.33l.86-.08-.32-.07c.11-.92.65.58,1.27,0,.59.12,1.18-1.91,1.79-1.46.29-.43-.25.7.18.37,0,.48-.2.3-.09.68.42-.23.69.49,1.21.17v.37c.68-.68,1.28.49,1.73-.16.71-.31.48,1.11,1.21.38l.28.5c.32.09.23-.61.57-.37,0,.32.44.25.24.56.79.49,1.6-.71,2.63.13.23-.62.75-.25.91-.72,0,.27,1,.05.46.63-.05,0-.14,0-.13-.06l-.07.36c.59.7,1.07-.38,1.66-.27-.18-.12-.41-.09-.25-.34l.54.05-.11.31.81.18L36.67,61c.4.19.54.84,1,.3.2-.3-.38-.52,0-.64a7.93,7.93,0,0,0,2,.77c-.07-.43.11-.41.3-.5v.37c.72-.52.27.82,1,.41l-.07.26.19-.78c.64-.74.35.78,1.06-.23-.28.06-.13-.83.21-.67l-.08.37c.19-.08.25-.23.38-.16-.11.2-.06.53.22.47l-.19.45.54-.67c.41.39,1.06-.09,1.23.41,0,0,.89.25,1.09-.3-.18.34.31.47.17.88.23-.39.91-.71,1.18-.3v.05c1,.43,1.72-.58,2.62-.06,0-.44.43-.2.32-.76.93-.54,1.7,1.13,2-.58.43-.09.51.4.73.49l-.11.09a5.34,5.34,0,0,1,1.62-.12c.29-.17.34-1,.87-.77-.17.32,0,.26.24.26-.13,0-.16.16.1.38a.48.48,0,0,1,.14-.21s0,0,0,.08c.33-.12.27-.21.12-.26a.39.39,0,0,0-.06-.2c.35.41,1,0,1,.52a18,18,0,0,0,2.52-.9.53.53,0,0,1-.34.64l.59-.1c0,.4-.34.23-.52.31.7.65,1.44-.65,2.26,0l.17-.32h.05a.59.59,0,0,1,.3-.45c.11.35,0,.81.39.78.32.34.91-.16,1.33-.35-.22-.06-.15-.26,0-.38s.31.34.47.19v.47c-.08-.44.53-.48.6-.67.12.35-.31.3-.36.56l1.21-.06c.44-.36-.07-.45.13-.86.38-.1.76-.43,1.2-.14l-.14-.42a1.29,1.29,0,0,1,1.63.15c5.34-3.42,1.12-4.67,1.12-4.67C67,53.23,65.9,54.45,63.4,54.78Z"/><path class="d" d="M42.57,60.56c-16.26-1.9-29.76-.64-30.17,2.83S24.85,71.2,41.1,73.1c3.45.4,6.78.66,9.89.79a37.42,37.42,0,0,0,13.72-8.51C59.47,63.4,51.54,61.61,42.57,60.56Z"/><circle class="e" cx="37.5" cy="37.5" r="37.5" transform="translate(1 1)"/><path class="a" d="M35.43,25.76a2.88,2.88,0,0,1,2-1.14,3.23,3.23,0,0,1,.53,0c2.46.43,3.21,2.79,2.87,4.8S39.11,33.38,36.76,33a2.83,2.83,0,0,1-2.35-1.87,5.85,5.85,0,0,1,1.02-5.37Z"/><path class="a" d="M33,50.3a2.4,2.4,0,0,1-.21-1.42l.19-6.2a9.06,9.06,0,0,1,.34-2.62,9.08,9.08,0,0,1,1.56-2.41,9.74,9.74,0,0,0,1.81-3,5,5,0,0,0,.65.07,4.64,4.64,0,0,0,2.6-.79A34.14,34.14,0,0,1,41.47,51a.82.82,0,0,0,.39.84c1.6.94,3.76,4.14,4.47,5.2.92,1.36.88,5.65.87,7.49v.61a2.11,2.11,0,0,1-.46,1.46c-.78.84-2.62.28-2.62-1.58a17.14,17.14,0,0,0-.47-3.8A7,7,0,0,0,41,57.3a12.4,12.4,0,0,0-1.5-.9c-.41-.23-.82-.45-1.21-.72A6.32,6.32,0,0,1,36,51.23a4.66,4.66,0,0,0,1.1-2.58,12.33,12.33,0,0,0,0-2.1v-.92a21.11,21.11,0,0,1,.47-3.32.83.83,0,0,0-.63-1,.84.84,0,0,0-1,.63,23.54,23.54,0,0,0-.5,3.67c0,.33,0,.66,0,1a12.46,12.46,0,0,1,0,1.84,2.72,2.72,0,0,1-1,1.94A1.16,1.16,0,0,1,33,50.3Z"/><path class="a" d="M29.14,65c.06-.11.23-.39.46-.8,1.19-2,4-6.72,5.55-9.92A7.25,7.25,0,0,0,37.39,57l.27.16c-.65,1.09-1.32,2.11-2,3.1-1,1.51-1.93,3-2.72,4.45-1.22,2.32-2.39,2.61-2.84,2.62a1.23,1.23,0,0,1-1.08-.59A1.72,1.72,0,0,1,29.14,65Z"/><path class="f" d="M30.1,69h.09c.91,0,2.69-.52,4.24-3.5.76-1.43,1.67-2.83,2.64-4.31.66-1,1.34-2,2-3.16a9.58,9.58,0,0,1,1,.59,5.31,5.31,0,0,1,2,3,15,15,0,0,1,.4,3.38,3.4,3.4,0,0,0,3.33,3.62,2.89,2.89,0,0,0,2.13-.92,3.64,3.64,0,0,0,.91-2.58v-.6c0-3.45-.09-6.85-1.15-8.42a24.12,24.12,0,0,0-4.52-5.38,35.82,35.82,0,0,0-2-18.07A6.68,6.68,0,0,0,42.46,30c.61-2.86-.55-6.14-3.92-6.88a4.32,4.32,0,0,0-4.2,1.5,7.53,7.53,0,0,0-1.57,7,4.41,4.41,0,0,0,2.31,2.68,8.72,8.72,0,0,1-1.51,2.4,10.4,10.4,0,0,0-1.82,2.89,10.22,10.22,0,0,0-.44,3.12l-.19,6.2a3.88,3.88,0,0,0,.52,2.44,2.48,2.48,0,0,0,2.06,1,3.31,3.31,0,0,0,.62-.09c-1.21,2.87-4.89,9.11-6.13,11.21l-.48.83a3.34,3.34,0,0,0-.05,3.41A2.81,2.81,0,0,0,30.1,69Zm5.33-43.24a2.9,2.9,0,0,1,2-1.14,3.23,3.23,0,0,1,.53,0c2.46.43,3.21,2.79,2.88,4.8S39.12,33.38,36.76,33a2.8,2.8,0,0,1-2.34-1.87,5.84,5.84,0,0,1,1.01-5.37ZM33,50.3a2.48,2.48,0,0,1-.21-1.42l.2-6.2a8.42,8.42,0,0,1,.34-2.62,8.79,8.79,0,0,1,1.55-2.41,9.55,9.55,0,0,0,1.81-3,4.93,4.93,0,0,0,.66.07,4.64,4.64,0,0,0,2.59-.79A34.14,34.14,0,0,1,41.47,51a.82.82,0,0,0,.39.84c1.6.94,3.76,4.14,4.47,5.2.92,1.36.88,5.65.87,7.49v.61a2.11,2.11,0,0,1-.46,1.46c-.78.84-2.62.28-2.62-1.58a16.56,16.56,0,0,0-.47-3.8A6.94,6.94,0,0,0,41,57.3a12.4,12.4,0,0,0-1.5-.9,13.13,13.13,0,0,1-1.2-.72A6.3,6.3,0,0,1,36,51.23a4.66,4.66,0,0,0,1.1-2.58,12.33,12.33,0,0,0,0-2.1c0-.31,0-.62,0-.92a21.51,21.51,0,0,1,.46-3.32.82.82,0,1,0-1.6-.35,22,22,0,0,0-.51,3.67v1a11.23,11.23,0,0,1,0,1.84,2.72,2.72,0,0,1-1,1.94A1.16,1.16,0,0,1,33,50.3ZM29.14,65l.47-.8c1.18-2,4-6.72,5.54-9.92A7.25,7.25,0,0,0,37.39,57l.28.16c-.66,1.09-1.33,2.11-2,3.1-1,1.51-1.93,3-2.72,4.45-1.21,2.32-2.39,2.61-2.84,2.62a1.24,1.24,0,0,1-1.08-.59A1.75,1.75,0,0,1,29.14,65Z"/><path class="a" d="M42,37s4.5,3.5,5.5,3.5c2,0,2.5,2.5.5,3.5a4.08,4.08,0,0,1-2.46-.12A18.84,18.84,0,0,1,43,43Z"/><path class="f" d="M41.47,37.53c1.17.91,2.37,1.8,3.62,2.61a7.62,7.62,0,0,0,2,1.06c.46.12.93,0,1.24.48.48.75-.28,1.58-1,1.71a5.92,5.92,0,0,1-2.54-.51c-.32-.1-.65-.27-1-.35-.68-.17-.15-.18-.1.25-.06-.55-.18-1.11-.28-1.66l-.72-4.32c-.16-.95-1.6-.55-1.44.4.31,1.87.54,3.78.93,5.63.18.8.61.92,1.38,1.21,1.48.56,3.61,1.38,5.1.43a2.74,2.74,0,0,0,1.25-2.92c-.34-1.34-1.32-1.47-2.44-1.8-1.74-.52-3.71-2.31-5-3.28C41.78,35.88,40.71,36.94,41.47,37.53Z"/><circle class="g" cx="37.5" cy="37.5" r="37.5" transform="translate(1 1)"/></g></svg>