<svg xmlns="http://www.w3.org/2000/svg" width="75" height="75" viewBox="0 0 75 75"><defs><style>.a{fill:#f1f9ff;}.b{fill:#bce0fd;stroke:#bce0fd;}.b,.c{stroke-miterlimit:10;}.c{fill:#2f8dde;stroke:#2f8dde;}.d{fill:#fff;}</style></defs><circle class="a" cx="37.5" cy="37.5" r="37.5"/><path class="b" d="M46.76,53.51a.62.62,0,0,1-.62-.62A10.2,10.2,0,0,0,36,42.7a.61.61,0,0,1-.62-.61.62.62,0,0,1,.62-.62A10.2,10.2,0,0,0,46.14,31.28a.62.62,0,0,1,1.24,0A10.2,10.2,0,0,0,57.57,41.47a.615.615,0,0,1,0,1.23A10.2,10.2,0,0,0,47.38,52.89.62.62,0,0,1,46.76,53.51Zm-7.1-11.42a11.46,11.46,0,0,1,7.1,7.09,11.46,11.46,0,0,1,7.1-7.09,11.5,11.5,0,0,1-7.1-7.1,11.5,11.5,0,0,1-7.1,7.1Z"/><path class="b" d="M30.3,58.14a.62.62,0,0,1-.62-.62,7.62,7.62,0,0,0-7.61-7.61.62.62,0,1,1,0-1.24,7.62,7.62,0,0,0,7.61-7.61.62.62,0,0,1,.62-.62.61.61,0,0,1,.61.62,7.62,7.62,0,0,0,7.62,7.61.62.62,0,0,1,0,1.24,7.62,7.62,0,0,0-7.62,7.61.61.61,0,0,1-.61.62Zm-5-8.85a8.91,8.91,0,0,1,5,5,8.9,8.9,0,0,1,5-5,8.9,8.9,0,0,1-5-5,8.91,8.91,0,0,1-4.99,5Z"/><path class="b" d="M39,35a.61.61,0,0,1-.61-.62,7.62,7.62,0,0,0-7.62-7.61.62.62,0,1,1,0-1.24,7.63,7.63,0,0,0,7.62-7.61A.61.61,0,0,1,39,17.3a.62.62,0,0,1,.62.62,7.63,7.63,0,0,0,7.62,7.61.62.62,0,0,1,0,1.24,7.62,7.62,0,0,0-7.62,7.61A.62.62,0,0,1,39,35Zm-5-8.85a8.9,8.9,0,0,1,5,5,8.91,8.91,0,0,1,5-5,8.9,8.9,0,0,1-5-5,8.88,8.88,0,0,1-4.94,4.99Z"/><path class="b" d="M20.52,37a3.7,3.7,0,1,1,2.623-1.08A3.7,3.7,0,0,1,20.52,37Zm0-6.17a2.49,2.49,0,1,1,0,.04Z"/><path class="b" d="M52.42,60.71a2.68,2.68,0,1,1,1.906-.8A2.68,2.68,0,0,1,52.42,60.71Zm0-4.11A1.44,1.44,0,1,0,53.86,58a1.44,1.44,0,0,0-1.44-1.4Z"/><path class="b" d="M54.48,29.84a2.68,2.68,0,1,1,2.67-2.67,2.68,2.68,0,0,1-2.67,2.67Zm0-4.11a1.43,1.43,0,1,0,1.021.419,1.44,1.44,0,0,0-1.021-.419Z"/><path class="c" d="M44.76,52.51a.62.62,0,0,1-.62-.62A10.2,10.2,0,0,0,34,41.7a.61.61,0,0,1-.62-.61.62.62,0,0,1,.62-.62A10.2,10.2,0,0,0,44.14,30.28a.62.62,0,1,1,1.24,0A10.2,10.2,0,0,0,55.57,40.47a.615.615,0,0,1,0,1.23A10.2,10.2,0,0,0,45.38,51.89a.62.62,0,0,1-.62.62Zm-7.1-11.42a11.46,11.46,0,0,1,7.1,7.09,11.46,11.46,0,0,1,7.1-7.09,11.5,11.5,0,0,1-7.1-7.1,11.5,11.5,0,0,1-7.1,7.1Z"/><path class="c" d="M28.3,57.14a.62.62,0,0,1-.62-.62,7.62,7.62,0,0,0-7.61-7.61.62.62,0,0,1,0-1.24,7.62,7.62,0,0,0,7.61-7.61.62.62,0,0,1,.62-.62.61.61,0,0,1,.61.62,7.62,7.62,0,0,0,7.62,7.61.62.62,0,0,1,0,1.24,7.62,7.62,0,0,0-7.62,7.61.61.61,0,0,1-.61.62Zm-5-8.85a8.91,8.91,0,0,1,5,5,8.9,8.9,0,0,1,5-5,8.9,8.9,0,0,1-5-5,8.91,8.91,0,0,1-4.99,5Z"/><path class="c" d="M37,34a.61.61,0,0,1-.61-.62,7.62,7.62,0,0,0-7.62-7.61.62.62,0,1,1,0-1.24,7.63,7.63,0,0,0,7.62-7.61A.61.61,0,0,1,37,16.3a.62.62,0,0,1,.62.62,7.63,7.63,0,0,0,7.62,7.61.62.62,0,0,1,0,1.24,7.62,7.62,0,0,0-7.62,7.61A.62.62,0,0,1,37,34Zm-5-8.85a8.9,8.9,0,0,1,5,5,8.91,8.91,0,0,1,5-5,8.9,8.9,0,0,1-5-5,8.88,8.88,0,0,1-4.94,4.99Z"/><path class="c" d="M18.52,36a3.7,3.7,0,1,1,2.623-1.08A3.7,3.7,0,0,1,18.52,36Zm0-6.17a2.49,2.49,0,1,1,0,.04Z"/><path class="c" d="M50.42,59.71a2.68,2.68,0,1,1,1.906-.8A2.68,2.68,0,0,1,50.42,59.71Zm0-4.11a1.461,1.461,0,1,1-.04,0Z"/><path class="c" d="M52.48,28.84a2.68,2.68,0,1,1,2.67-2.67,2.68,2.68,0,0,1-2.67,2.67Zm0-4.11a1.43,1.43,0,1,0,1.021.419,1.44,1.44,0,0,0-1.021-.419Z"/><path class="d" d="M37.66,41.09a11.46,11.46,0,0,1,7.1,7.09,11.46,11.46,0,0,1,7.1-7.09,11.5,11.5,0,0,1-7.1-7.1A11.5,11.5,0,0,1,37.66,41.09Z"/><path class="d" d="M23.31,48.29a8.91,8.91,0,0,1,5,5,8.9,8.9,0,0,1,5-5,8.9,8.9,0,0,1-5-5A8.91,8.91,0,0,1,23.31,48.29Z"/><path class="d" d="M32.06,25.14a8.9,8.9,0,0,1,5,5,8.91,8.91,0,0,1,5-5,8.9,8.9,0,0,1-5-5,8.88,8.88,0,0,1-5,5Z"/><circle class="d" cx="2.47" cy="2.47" r="2.47" transform="translate(16.05 29.87)"/><ellipse class="d" cx="1.48" cy="1.44" rx="1.48" ry="1.44" transform="translate(48.9 55.6)"/></svg>