<svg xmlns="http://www.w3.org/2000/svg" width="31.55" height="39.653" viewBox="0 0 31.55 39.653"><defs><style>.a{fill:#2699fb;stroke:#2699fb;stroke-width:0.5px;}</style></defs><path class="a" d="M44.008,14.922a.66.66,0,0,0-.8-.487,9.476,9.476,0,0,0-3.455,1.816,8.055,8.055,0,0,0-1.506-2.392.659.659,0,1,0-.975.886c.709.8,2.924,3.19.975,8.86a2.893,2.893,0,0,0-1.063,1.9.718.718,0,0,0-.62.31.709.709,0,0,0,.221.93,3.074,3.074,0,0,1,.664.62.67.67,0,0,0,.842.133.655.655,0,0,0,.31-.753,1.907,1.907,0,0,1,1.019-2.392c.266-.089.4-.044.443,0,.532.31.842,1.639,1.019,2.569l.133.532c.221.975-.576,1.772-1.55,2.614l-.133.133a2.072,2.072,0,0,1-2.525.31,18.225,18.225,0,0,1-1.816-1.55c-.576-.532-1.2-1.107-1.728-1.55a.661.661,0,0,0-.842,1.019c.532.443,1.107.975,1.683,1.506a14.093,14.093,0,0,0,2.038,1.728,2.955,2.955,0,0,0,1.285.443,2.019,2.019,0,0,1-.886.842A1.12,1.12,0,0,1,35.9,33c-.62-.266-2.968-2.082-6.955-5.493l-.487-.443a.661.661,0,0,0-.842,1.019l.487.4c1.152.975,2.171,1.816,3.012,2.525a42.525,42.525,0,0,0,.93,5.892c.576,2.791,1.24,6.29.842,7.354-.31.709-.753,1.107-1.24,1.107h0a.957.957,0,0,1-.886-.532c-.177-.4-1.418-5.183-2.436-8.993-.842-3.012-1.595-5.892-1.9-6.866a.673.673,0,1,0-1.285.4c.133.443.354,1.24.62,2.3-2.569,1.949-8.24,9.17-8.284,9.214A2.39,2.39,0,0,1,15.657,41.9a1.38,1.38,0,0,1-.93-.177c-.31-.266-.753-.709.044-1.9.089-.133,8.373-12.094,9.126-14.043a13.316,13.316,0,0,0,.62-2.171c.221-1.019.532-2.348,1.373-5.05,1.595-4.961,3.9-7.752,7.974-9.657a.618.618,0,0,0,.31-.886.618.618,0,0,0-.886-.31c-4.341,2.082-6.911,5.183-8.638,10.5a45.85,45.85,0,0,0-1.418,5.183,9.052,9.052,0,0,1-.576,1.949c-.62,1.595-7.8,12.094-8.948,13.733-1.24,1.772-.62,2.924.089,3.588a2.575,2.575,0,0,0,1.683.576h.266a3.9,3.9,0,0,0,2.791-1.55,83.223,83.223,0,0,1,7.619-8.638c.266.975.532,2.082.842,3.19,1.418,5.449,2.3,8.771,2.481,9.17a2.343,2.343,0,0,0,2.082,1.373h0a2.643,2.643,0,0,0,2.481-1.949c.576-1.462-.044-4.7-.753-8.107-.31-1.595-.62-3.19-.8-4.474a16.3,16.3,0,0,0,2.835,1.993,2.112,2.112,0,0,0,.886.177,2.592,2.592,0,0,0,.975-.221,17.2,17.2,0,0,0,3.234,2.436,1.25,1.25,0,0,0,.664.177,1.673,1.673,0,0,0,1.063-.4A3.481,3.481,0,0,0,43.3,33a5.526,5.526,0,0,0-1.728-3.012,2.977,2.977,0,0,0,.842-2.835l-.133-.532c-.266-1.285-.664-2.879-1.683-3.455a1.629,1.629,0,0,0-.886-.221,11.455,11.455,0,0,0,.31-5.4,8.971,8.971,0,0,1,3.322-1.861A.6.6,0,0,0,44.008,14.922Zm-1.9,18.34a2.147,2.147,0,0,1-.62,2.082c-.044.044-.266.177-.354.089a16.043,16.043,0,0,1-2.747-2.082,3.862,3.862,0,0,0,.8-1.373v-.044a3.5,3.5,0,0,0,1.285-.753l.133-.133c.044-.044.133-.089.177-.133A4.608,4.608,0,0,1,42.1,33.262Z" transform="translate(-12.73 -7.371)"/></svg>