<svg xmlns="http://www.w3.org/2000/svg" width="100" height="100" viewBox="0 0 100 100"><defs><style>.a{fill:#f1f9ff;}.b{fill:#7fc4fd;}.c{fill:#fff;}.d{fill:none;}.e{fill:#2f8dde;}</style></defs><g transform="translate(0 0)"><g transform="translate(0 0)"><circle class="a" cx="49.897" cy="49.897" r="49.897" transform="translate(0.106)"/><path class="b" d="M1.08,41.475A49.9,49.9,0,1,0,99.436,29.5H2.544A50.03,50.03,0,0,0,1.08,41.475Z" transform="translate(-0.974 8.421)"/><path class="c" d="M64.653,32.486,64.4,32.18a.293.293,0,0,0,.253.306Z" transform="translate(19.959 9.307)"/><path class="c" d="M17.14,32.5Z" transform="translate(4.336 9.413)"/><path class="c" d="M57.3,24.59h0v-.08Z" transform="translate(17.612 6.772)"/><path class="c" d="M88.325,25.633c-3.34-.386-4.231-1.823-7.691-1.237a28.914,28.914,0,0,0-5.03.386c-.758,1.131-2.116,0-3.02.958l-.346-.639c-.319.333-.679.546-1,.2v-.186c-.466.492-1,.2-1.224.439v-.2l-.572.08.106-.266a2.794,2.794,0,0,1-2.4.319v.772c-1.583-.865-2.156.732-3.593-.293v-.186c-1.81,2.036-2.847-1.331-4.71.546.24-.24-.093-.4-.08-.585-.852.226-1.77.346-1.783,1.863-.625,0-.506-.479-.585-1.064a1,1,0,0,1-1.025.985l.226-.266-1.4.226.279,1.264c-.745-.359-.2-1.53-.9-1.237V28.56c-1.025-.213-1.623-1.783-2.661-2.555-4.111-.439-8.529,2.209-12.361.386l-.173-.785c-.067-1.144-1.051,1.69-1.2.625l-.439.532c-.133-.213-.4-.426-.173-.679-.412,0-.426.133-.719.479l-.439-.705c-1.477-.506-2.808.825-4.537.559-2.049-1.45-5.921-.12-8.143.652-3.127,1.7-6.773-2.834-9.979-.891-.106-.16-.373.2-.373.333l-2.941-.16S-4.775,25.912,6,35.373v.24c1.61.612,2.661.745,3.726-.506.173,1.53,1.331.16,1.69.652v.12c.971-1.171,2.009.985,2.954,0,0,.12,0,.532-.266.559.679-.186,1.623-.532,1.677.359,1.637-.226,3.992.186,4.99-1.237l-.133.173c.6-.958.772-.146,1.437-.625,0,.106.093.173.08.226.652-.958,1.9-.16,2.435-.559v.6l1.331-.146-.492-.12c.173-1.637.985,1.011,1.929,0,.878.213,1.8-3.38,2.661-2.581.426-.772-.386,1.237.266.652,0,.838-.306.532-.146,1.211.652-.412,1.064.865,1.85.293v.652c1.025-1.2,1.943.878,2.661-.279,1.064-.546.705,1.969,1.823.679l.426.891c.479.146.346-1.1.865-.665,0,.559.665.452.359.985,1.2.878,2.422-1.251,3.992.24.346-1.091,1.131-.439,1.331-1.331,0,.479,1.583.067.692,1.1,0,.093-.2.08-.2-.106l-.106.652c.9,1.224,1.623-.679,2.515-.492-.266-.213-.612-.16-.373-.612l.812.093-.16.546,1.224.319-.173-.679c.6.359.812,1.5,1.49.546.306-.532-.572-.918.067-1.131a11.39,11.39,0,0,0,3.02,1.331c-.093-.772.186-.745.466-.891v.652c1.091-.918.4,1.464,1.477.732l-.093.466.293-1.331c.971-1.331.519,1.331,1.6-.426-.426.12-.2-1.464.333-1.171l-.133.639c.293-.133.386-.4.585-.266-.186.346-.093.931.333.812l-.293.812.812-1.184c.625.692,1.61-.173,1.876.732,0,0,1.331.439,1.65-.546-.266.612.466.838.253,1.57.359-.705,1.331-1.331,1.8-.532l-.08.093c1.517.745,2.661-1.038,3.992-.12,0-.772.665-.359.479-1.331,1.424-.971,2.581,2,3.087-1.051.652-.16.772.719,1.1.878l-.16.16a6.906,6.906,0,0,1,2.448-.213c.452-.293.519-1.7,1.331-1.331-.253.572,0,.466.373.466-.2.08-.253.293.146.665a.985.985,0,0,1,.213-.373s0,.08,0,.146c.506-.2.412-.373.186-.452a.825.825,0,0,0-.08-.346c.519.719,1.437,0,1.5.9,1.5-.213,2.581-1.211,3.832-1.583a.985.985,0,0,1-.519,1.118l.891-.173c0,.705-.519.412-.785.546,1.051,1.158,2.169-1.144,3.406-.093l.266-.559.067.093a1.131,1.131,0,0,1,.466-.8c.173.625,0,1.437.6,1.4.479.6,1.331-.306,2.009-.639-.346-.106-.226-.452-.08-.665s.479.6.719.333V35.4c-.12-.8.8-.852.918-1.2.173.625-.479.532-.559,1l1.85-.106c.652-.639-.12-.8.186-1.53.585-.173,1.144-.758,1.81-.253l-.2-.745a1.77,1.77,0,0,1,2.462.266c8.117-6.054,1.716-8.276,1.716-8.276C93.821,22.878,92.118,25.047,88.325,25.633Z" transform="translate(-0.68 6.581)"/><path class="a" d="M52.547,60.852C30.912,58.324,12.949,60,12.4,64.618S28.969,75.01,50.591,77.538c4.59.532,9.021.878,13.159,1.051A49.79,49.79,0,0,0,82.006,67.266C75.033,64.631,64.482,62.25,52.547,60.852Z" transform="translate(2.765 18.397)"/><circle class="d" cx="50" cy="50" r="50" transform="translate(0 0)"/><path class="a" d="M35.853,26.14a3.832,3.832,0,0,1,2.661-1.517,4.3,4.3,0,0,1,.705,0c3.273.572,4.271,3.712,3.819,6.387s-2.289,5.269-5.415,4.763A3.766,3.766,0,0,1,34.5,33.286a7.784,7.784,0,0,1,1.357-7.145Z" transform="translate(9.959 6.805)"/><path class="a" d="M33.079,55.712a3.193,3.193,0,0,1-.279-1.889l.253-8.25a12.055,12.055,0,0,1,.452-3.486,12.081,12.081,0,0,1,2.076-3.207,12.96,12.96,0,0,0,2.408-3.992,6.653,6.653,0,0,0,.865.093,6.174,6.174,0,0,0,3.46-1.051,45.426,45.426,0,0,1,2.036,22.713,1.091,1.091,0,0,0,.519,1.118c2.129,1.251,5,5.509,5.948,6.919,1.224,1.81,1.171,7.518,1.158,9.966v.812a2.808,2.808,0,0,1-.612,1.943c-1.038,1.118-3.486.373-3.486-2.1a22.806,22.806,0,0,0-.625-5.056,9.314,9.314,0,0,0-3.526-5.216,16.5,16.5,0,0,0-2-1.2c-.546-.306-1.091-.6-1.61-.958a8.409,8.409,0,0,1-3.047-5.921,6.2,6.2,0,0,0,1.464-3.433,16.406,16.406,0,0,0,0-2.794V49.5a28.088,28.088,0,0,1,.625-4.418,1.1,1.1,0,0,0-.838-1.331,1.118,1.118,0,0,0-1.331.838,31.322,31.322,0,0,0-.665,4.883c0,.439,0,.878,0,1.331a16.579,16.579,0,0,1,0,2.448A3.619,3.619,0,0,1,35,55.831a1.543,1.543,0,0,1-1.916-.12Z" transform="translate(9.499 9.886)"/><path class="a" d="M29.24,68.544c.08-.146.306-.519.612-1.064,1.583-2.661,5.322-8.941,7.385-13.2a9.647,9.647,0,0,0,2.98,3.619l.359.213c-.865,1.45-1.756,2.808-2.661,4.125-1.331,2.009-2.568,3.992-3.619,5.921-1.623,3.087-3.18,3.473-3.779,3.486a1.637,1.637,0,0,1-1.437-.785A2.289,2.289,0,0,1,29.24,68.544Z" transform="translate(8.203 16.613)"/><path class="e" d="M31.053,84.2h.12c1.211,0,3.579-.692,5.642-4.657,1.011-1.9,2.222-3.766,3.513-5.735.878-1.331,1.783-2.661,2.661-4.2a12.746,12.746,0,0,1,1.331.785,7.065,7.065,0,0,1,2.661,3.992,19.959,19.959,0,0,1,.532,4.5,4.524,4.524,0,0,0,4.431,4.817,3.845,3.845,0,0,0,2.834-1.224,4.843,4.843,0,0,0,1.211-3.433v-.8c0-4.59-.12-9.114-1.53-11.2a32.094,32.094,0,0,0-6.014-7.159,47.661,47.661,0,0,0-2.661-24.044A8.888,8.888,0,0,0,47.5,32.3c.812-3.805-.732-8.17-5.216-9.154a5.748,5.748,0,0,0-5.588,2,10.019,10.019,0,0,0-2.089,9.314,5.868,5.868,0,0,0,3.074,3.566,11.6,11.6,0,0,1-2.009,3.193,13.838,13.838,0,0,0-2.422,3.845,13.6,13.6,0,0,0-.585,4.151l-.253,8.25a5.163,5.163,0,0,0,.692,3.247,3.3,3.3,0,0,0,2.741,1.331,4.4,4.4,0,0,0,.825-.12c-1.61,3.819-6.507,12.122-8.156,14.916l-.639,1.1a4.444,4.444,0,0,0-.067,4.537A3.739,3.739,0,0,0,31.053,84.2Zm7.092-57.534a3.859,3.859,0,0,1,2.661-1.517,4.3,4.3,0,0,1,.705,0c3.273.572,4.271,3.712,3.832,6.387s-2.289,5.269-5.429,4.763A3.726,3.726,0,0,1,36.8,33.806a7.771,7.771,0,0,1,1.344-7.145ZM34.912,59.313a3.3,3.3,0,0,1-.279-1.889l.266-8.25a11.2,11.2,0,0,1,.452-3.486,11.7,11.7,0,0,1,2.062-3.207,12.707,12.707,0,0,0,2.408-3.992,6.56,6.56,0,0,0,.878.093,6.174,6.174,0,0,0,3.446-1.051,45.426,45.426,0,0,1,2.036,22.713,1.091,1.091,0,0,0,.519,1.118c2.129,1.251,5,5.509,5.948,6.919,1.224,1.81,1.171,7.518,1.158,9.966v.812A2.808,2.808,0,0,1,53.194,81c-1.038,1.118-3.486.373-3.486-2.1a22.034,22.034,0,0,0-.625-5.056,9.234,9.234,0,0,0-3.526-5.216,16.5,16.5,0,0,0-2-1.2,17.471,17.471,0,0,1-1.6-.958,8.383,8.383,0,0,1-3.06-5.921,6.2,6.2,0,0,0,1.464-3.433,16.405,16.405,0,0,0,0-2.794c0-.412,0-.825,0-1.224a28.621,28.621,0,0,1,.612-4.418,1.091,1.091,0,1,0-2.129-.466,29.273,29.273,0,0,0-.679,4.883V54.43a14.942,14.942,0,0,1,0,2.448,3.619,3.619,0,0,1-1.331,2.581,1.543,1.543,0,0,1-1.929-.146Zm-5.136,19.56.625-1.064c1.57-2.661,5.322-8.941,7.371-13.2a9.647,9.647,0,0,0,2.98,3.619l.373.213c-.878,1.45-1.77,2.808-2.661,4.125-1.331,2.009-2.568,3.992-3.619,5.921-1.61,3.087-3.18,3.473-3.779,3.486a1.65,1.65,0,0,1-1.437-.785,2.328,2.328,0,0,1,.146-2.315Z" transform="translate(7.667 6.284)"/><path class="a" d="M42,37s5.988,4.657,7.318,4.657c2.661,0,3.326,3.326.665,4.657a5.429,5.429,0,0,1-3.273-.16,25.07,25.07,0,0,1-3.38-1.171Z" transform="translate(12.554 10.901)"/><path class="e" d="M41.556,37.951c1.557,1.211,3.153,2.4,4.817,3.473a10.139,10.139,0,0,0,2.661,1.41c.612.16,1.237,0,1.65.639.639,1-.373,2.1-1.331,2.275a7.877,7.877,0,0,1-3.38-.679c-.426-.133-.865-.359-1.331-.466-.9-.226-.2-.24-.133.333-.08-.732-.24-1.477-.373-2.209L43.18,36.98c-.213-1.264-2.129-.732-1.916.532C41.676,40,41.982,42.541,42.5,45c.24,1.064.812,1.224,1.836,1.61,1.969.745,4.8,1.836,6.786.572A3.646,3.646,0,0,0,52.787,43.3c-.452-1.783-1.756-1.956-3.247-2.4-2.315-.692-4.936-3.074-6.653-4.364C41.969,35.755,40.545,37.166,41.556,37.951Z" transform="translate(12.292 10.655)"/></g></g></svg>