<svg xmlns="http://www.w3.org/2000/svg" width="75" height="75" viewBox="0 0 75 75"><defs><style>.a,.d,.f{fill:none;}.a{stroke:#2f8dde;}.a,.d{stroke-linecap:round;stroke-linejoin:round;}.b{fill:#f1f9ff;}.c{fill:#2f8dde;}.d{stroke:#bce0fd;}.e{fill:#bce0fd;}.f{stroke:#f0f;stroke-linejoin:bevel;}</style></defs><path class="a" d="M57.29,19h0" transform="translate(6 1.652)"/><circle class="b" cx="37.5" cy="37.5" r="37.5"/><path class="c" d="M74.13,39.8A37.305,37.305,0,0,1,62.449,60.48l-.643.52H15.15A37.278,37.278,0,0,1,1.17,36.28C3.981,38.81,7.631,41,11.881,41c10.188,0,16.911-12.49,16.911-12.49S35.525,16.07,45.659,16,62.624,28.51,62.624,28.51,67.037,36.66,74.13,39.8Z" transform="translate(0 6)"/><path class="d" d="M41.19,19.58h0" transform="translate(3.582 1.703)"/><path class="e" d="M.36,39.48C2.974,55.922,17.974,68.316,36.047,68.968S70.132,58.343,74.14,42.14c-7.424-2.86-12.072-10.77-12.072-10.77S55.2,19.64,44.8,19.58,27.551,31.37,27.551,31.37,20.65,43.1,10.287,43.16A16.791,16.791,0,0,1,.36,39.48Z" transform="translate(0 6)"/><line class="f" y2="73" transform="translate(28.261 1)"/><line class="f" y2="73" transform="translate(46.739 1)"/></svg>