<svg xmlns="http://www.w3.org/2000/svg" width="242.26" height="243.7" viewBox="0 0 242.26 243.7"><defs><style>.a{fill:#e6e6e6;}.b{fill:#666;}</style></defs><path class="a" d="M74.7,0,60.63,1.7h14.6Z"/><path class="a" d="M242.26,80.57V77.3l-.26-.27v3.28Z"/><path class="a" d="M242.26,19.94v-2.1l-.26-.03v2.1Z"/><path class="a" d="M242.26,32.72V28.48l-.26-.04v4.24Z"/><path class="a" d="M242.26,10.88V8.75L242,8.7v2.14Z"/><path class="a" d="M242.26,38.59V35.7l-.26.2v2.89Z"/><path class="a" d="M242.26,62.51V57.69l-.26.12v4.82Z"/><path class="a" d="M242.26,138.22V134H242v4.24Z"/><path class="a" d="M242.26,165.03v-4.27l-.26-.04v4.27Z"/><path class="a" d="M242.26,200.13v-4.25l-.26-.03v4.24Z"/><path class="a" d="M242.26,75.88V73.43l-.26.12V76Z"/><path class="a" d="M242.26,219.37v-4.18l-.26-.03v4.18Z"/><path class="a" d="M242.26,180.23v-2.09l-.26-.04v2.09Z"/><path class="a" d="M242.26,120.31v-2.14l-.26-.05v2.14Z"/><path class="a" d="M242.26,155.29v-9.04l-.26.88v9.05Z"/><path class="a" d="M242.26,93.46V86.39l-.26-.04v7.07Z"/><path class="a" d="M242.26,243.16V221.52l-.26,1.14v20.5Z"/><path class="a" d="M241.62,243.2h-62.5l-4.36-7.2,34.16-8.58L207,238.22l-21.2,4.94h18.44c1-.24,1.89-.43,2.85-.67l.1.67h5.18l-.29-1.84c10.5-2.47,20.85-4.9,27-6.39l-1.89,8.23h4.34V224.32l-1.39,6-11.85,2.78,2.8-15,10.44,1.16v-4.17l-24.86-2.75,2.8-15.34,22.15,3v-4.2l-21.42-3,2.8-15.64,18.67,3V178l-18.28-2.92,2.28-12.81,16,2.62v-4.27l-.91-.15.91-3v-9l-3.47,11.7-11.86-2,3.87-21.82,11.46,1.78V133.9c-5.4-.84-11.36-1.78-17.5-2.72L227,117.35l14.65,2.84v-2.14l-14.21-2.74L232.25,92l9.37,1.36V86.29l-37.44-5.45L230,68.43l11.6,11.5V76.66l-.32-.32.32-.16V73.73l-1.92.93-7.45-7.33,9.37-4.52V58L229,64.08l-8.86-8.77,21.52-16.23V36.19l-21.13,16,5.9-21.86,15.23,2.31V28.38l-14.3-2.18c.39-1.88,1-4.77,1.55-7.71l12.71,1.38v-2.1L229.3,16.45c.62-3.1,1.21-5.95,1.5-7.44l10.82,1.77V8.64L217.34,4.7l1.19-3h-9l-6.32,16-19.6-16H172.39l-7.93,5.55L160.87,1.7h-2.94l4.49,7-8.08,5.64a66.3,66.3,0,0,1-7.51-12.6h-5.5a74.879,74.879,0,0,0,9,15.14L139.25,23.3,129,1.7h-2.77l5.18,10.83-11.27,4.39-3.68-9.87,4.87-5.35h-3.16l-2.63,2.88L114.41,1.7h-5.33L114,14.85,89.36,18.72l-5.29-17H75.23l6.39,20.51L54.86,14.65l-1.94-12,7.71-.92H43.11l-4.51.53-.08-.53H33.3l4.09,27.79L13,6.77,12.54,1.7H10l.37,4.57L.91,7V9c3.55-.26,8.49-.66,10.26-.8L37,32.27.91,35v4.22l24-1.85L11.41,70.78.91,67.3v2.27l9.72,3.2L3.13,91.42.91,91.13v2.1l1.4.19L.91,96.91v6.72l3.82-9.51,10.5,4.78L4.1,130.63.91,129.39v7.66L13,141.75,7,158.36l-6-.41v4.16l4.59.32L.91,175.14v66.93L1,243.16H6.18l-.53-5.84L21,235.21l-.73,8H.26V1.7H0v242H242v-.54h-.38Zm-32.31-18.1L189,230.19l-2.42-7.56,24.15-5.6Zm2.23-12.57-44.71,10.34-6.78-11.17,7.55-12.06,45.29,5.29Zm-21.34-162-4.84,12.26L164.21,56l5.67-11.47Zm-19.41-7.91,4.89-9.95c7.26,3.37,14.32,6.34,18.39,8L191,48.49ZM186.13,188.2l1.87-8.5,28.6,4.35-1.46,8.11Zm28.26,8.11-1.16,6.58-18.92-2.19,1.89-6.85ZM118.92,188l-12.68-.27,1.94-8.85,10.74,4.19a14.19,14.19,0,0,0-.24,2.43,8.78,8.78,0,0,0,.24,2.5Zm3.92,7.06a16.77,16.77,0,0,0,2.28,1.88l-9.68,10.3-9.15-12.58Zm-.68-18.41-24.43-9.52,26.56-7.88,4,13a18.22,18.22,0,0,0-6.13,4.44ZM46.83,109.44l-14-4.74,6.92-15.28,13.94,3.49ZM58.59,94.2l12.53,3.56-8.47,15.71-11.52-1.1Zm-8.38,20.13,11.71,1.14-2.66,14.06-12.43-6.89Zm14.42.51,8.9-16.41,22,6.23-7.79,32.15-9.87,3.06-16.25-9.05Zm45.2-30.39L107.51,77l11-5.14,5.37,15.51Zm30.09,10.49-7.4,7.92L116.7,106.5,111.28,89Zm-25.16,33.49-24.19,7.49L98,105.33c4.21,1.17,7.89,2.23,10.5,3Zm-10.93,7.84,4.35,12.65-18.34,6.19L81.47,143.2ZM108.91,151l3.34,9.72-17.71,5.25-13.89-5.45Zm-2.66-15.43,9.72-3,7.7,24.71-9,2.66Zm11.13-27,15.19-3.49,14.56,29.1L127,139.24Zm23.18,6.93,28.59-11.79-15.24,38.5Zm-1-1.92-4.8-9.6,7.89-8.42,27,5.6Zm23-18.21,4.11-12.26,9.53,2.58-4.59,11.56Zm-2.47-.47L146.5,92.05l6.25-12.73,11.56,3.13Zm-18.68-4-14.66-3-6-17.16,9.48-4.43,24.15-1.68ZM106.88,74.85,102,59.38l13.79-7.48C118.1,54.36,125.46,62.27,128,65Zm.77,31.06-25-7.09,4.84-15.27L101.75,87ZM79.05,144l8.42,12-9.92,3.33L56.36,151Zm-7,20.84-6,9-20.32-3.57,3.39-14.37Zm9.73,13.9-1.31,8.46L42,186.28l3.3-13.94ZM68.74,174.3l5.66-8.54,12.68,4.94-4.5,6Zm15.73,3.95,5-6.62L105.71,178l-2.13,9.71-20.51-.47Zm43.07-37,20.51-5.17,4.6,9.2-10.12,25.66a21.4,21.4,0,0,0-5.12-.59h-.78Zm31.69,10.22,28.64,4.7-.43,2-34.79,18.49a17.369,17.369,0,0,0-2.52-2.31ZM186.81,161l-5.76,26.44-25-3.45a12.66,12.66,0,0,0-2.08-5.52Zm6.87,32.39-1.94,6.93-22.93-2.66,4.4-7.05Zm-32.85-45.94L169,126.83l24.48,3.8-4.69,21.42Zm9.77-24.64,6.34-16.06,24.2,17.74-1.8,2.79c-12.24-1.9-22.98-3.55-28.74-4.45ZM153.67,77.36l9.58-19.43,21.29,6.81L177,83.66ZM157,59.46l-10-6.82,12-13.71,6.24,3.68Zm-1,2-.48,1-25,1.73L118,50.68l12.43-6.77ZM116.36,49c-1.06-1.1-3.1-3.17-4.55-4.66l10.4-6.07,6.1,4.19Zm-2.13,1.17-12.87,7L99.57,51.5l10.16-5.92Zm-13.89,32L77.65,76.81l17-12.65Zm-15.28.67-4.8,15.2L59.36,92.2l5.81-14.06Zm-30.54,8C50.7,90,43.59,88.17,40.68,87.42l6.2-13.67L60.28,77Zm-24.05,13-10.35-3.48L30.81,69.88l13.6,3.29Zm14.71,9.52-3,7.17L16.34,111l2.32-6.54ZM46,124.67l29,16.1-25,7.72-12-4.66ZM44.41,154l-5.86,24.75-15.19-1.29,8.42-28.4Zm42.92,40.26c-1,3.18-2.62,8-4.89,13.87L44.5,205.79l-2.56-12.57Zm13,30.12-3.87,8-17-5.24c1.06-2.08,2.08-4.12,3-6.15Zm-16.06-7.32h0a198.922,198.922,0,0,0,8.37-22.68l10.65.24L113.7,209l-10.84,11.55Zm31.41-6.66,9.29,3.09-4.65,10.42-14.71-2.78Zm1.64-1.72,9.82-10.46a20,20,0,0,0,4,1.61l-5.28,11.71Zm9.91-23.15h0c0-4.56,4.57-8.26,10.2-8.27s10.21,3.7,10.21,8.27S143,193.8,137.4,193.8s-10.21-3.7-10.21-8.26Zm9,15.19a9.716,9.716,0,0,0,1.21,0,22.39,22.39,0,0,0,6-.78l6.09,10-18.29,1.92Zm3.68,12.38,10.71-1.1,7.59,12.53-20.51,4.55Zm10.78-16.84h0a14.43,14.43,0,0,0,5.22-8.07l14.71,2-12,19.11Zm77.91,21.66-2.95,15.9-13.21,3.1,3.56-20.4ZM217,182l-28.54-4.38,2.85-13L218,175.87Zm1.46-8.34L191.79,162.5,193,157l27.58,4.5Zm6.73-38.11-3.88,21.82-27.43-4.5,4.69-21.47Zm4.54-43.94-8.13,39.13c-6.53-1-13.21-2.08-19.59-3.06L225.52,91Zm-6.87-1-20.52,32-11.41-8.42L209.8,88.73ZM207,88.32l-18.1,24.45-11.13-8.19,7.65-19.39Zm-10.6-8.57-8.32-1.22,10.3-26.05L216.81,56c-1.84,6.85-3.53,13-4.3,16Zm30.29-14.61L215.55,70.5l3.49-13ZM216.52,6.7l11.76,1.92L224.8,25.85l-15-2.27Zm-8.27,20.91L223.83,30c-1.11,4.23-3.87,14.46-6.48,24L199.2,50.53Zm-30.1-24.4,23.23,19-5.71,14.41c-8.57-3.52-28-11.83-37-18a13.481,13.481,0,0,1-1.26-1Zm-24.73,17a22.911,22.911,0,0,0,1.94,1.57,120.149,120.149,0,0,0,15.82,8.77l-4.93,10.07-23.86-14Zm-13.26,7.72,16.75,9.79L145.05,51.27,124.39,37.09Zm-7.88-13.36,4.79,10.07-11.61,6.73L120.86,19Zm-17.52,2.35,6.29,17L98.26,47.16,90,20.72ZM94,61.88,74.75,76.1l-29.28-7,6.58-22.87,36.78-.86ZM88.15,43.24l-35.52.86,2.62-9,29.66-2.27Zm-5.76-18.6,1.26,4.07-26.18,2L55.25,17Zm-32-21.7,4.55,28-12,.93-4-27.53ZM42.67,36l9.87-.74L47.8,51.78,38,49.23Zm4.54,17.79L43,68.47,32.21,65.88l5.13-14.61ZM5.55,92.08,27.67,37.17l9.48-.7L16,96.82Zm3.29,40.39L15.66,113l25.75,9.56-8,19.46Zm8.8,11.12,11.76,4.58-8.61,29.11L6,176ZM5.21,178.06l32.86,2.78-1.26,5.32-34.26-.78ZM1.58,192.31l35.13.83,1.5,7.32L2.55,202.93ZM2.7,205l35.9-2.47,2.18,10.61L3.71,216.36Zm2.76,30.27L4.1,220.56l37.5-3.29,2.61,12.61Zm17.42,8,.19-2.39,1.74,2.39Zm4.93,0-4.4-6.08.19-2.27,21-2.9L47,243.2Zm24.39,0L44.94,208l36.68,2.27A163,163,0,0,1,64,243.2Zm17.76,0a145.69,145.69,0,0,0,8.46-14.1l17,5.28L91.2,243.2Zm26,0-1.7-.59,8.57-17.75,15.67,3-6.87,15.32h5.47l13.07-29.07,7.11-.7-4.11,29.81Zm39.82,0,1.65-11.91,11.66-2.59,6.29,14.5Zm22.31,0c-2.42-5.53-5.42-12.46-6.54-15l7.84-1.72,10.16,16.77Zm11-16.53,15-3.49,2.42,7.6-12.92,3.29Z"/><path class="a" d="M241.62,118.05l.38.07V93.42l-.38-.06Z"/><path class="a" d="M241.62,57.99l.38-.18V38.79l-.38.29Z"/><path class="a" d="M241.62,36.19l.38-.29V32.68l-.38-.06Z"/><path class="a" d="M241.62,76.66l.38.37V76l-.38.18Z"/><path class="a" d="M241.62,73.73l.38-.18V62.63l-.38.18Z"/><path class="a" d="M242,8.7v-7h-.38V8.64Z"/><path class="a" d="M241.62,17.77l.38.04V10.84l-.38-.06Z"/><path class="a" d="M241.62,28.38l.38.06V19.91l-.38-.04Z"/><path class="a" d="M241.62,178.04l.38.06V164.99l-.38-.06Z"/><path class="a" d="M241.62,195.79l.38.06V180.19l-.38-.06Z"/><path class="a" d="M241.62,224.32l.38-1.66v-3.32l-.38-.05Z"/><path class="a" d="M241.62,215.12l.38.04V200.09l-.38-.05Z"/><path class="a" d="M241.62,148.41l.38-1.28v-8.95l-.38-.06Z"/><path class="a" d="M241.62,133.89l.38.05V120.26l-.38-.07Z"/><path class="a" d="M241.62,86.29l.38.06V80.31l-.38-.38Z"/><path class="a" d="M241.62,160.66l.38.06v-4.54l-.38,1.28Z"/><path class="b" d="M.13,207.58s8-70.38,58-81.48,79.5-79.31,121.48-66.9,62.53,42.68,62.53,42.68V243.7H.13Z"/></svg>