<svg xmlns="http://www.w3.org/2000/svg" width="30" height="29.97" viewBox="0 0 30 29.97"><defs><style>.a{fill:#fff;}</style></defs><path class="a" d="M29.59,13.11c-.24-.15-2.13-1.29-2.88-1.62l-.93-2.25c.27-.75.81-2.82.9-3.18a.978.978,0,0,0-.27-.93L24.94,3.66a.978.978,0,0,0-.93-.27c-.27.06-2.4.6-3.18.9l-2.25-.93C18.25,2.64,17.14.78,16.96.48A.994.994,0,0,0,16.12,0H14.05a.994.994,0,0,0-.84.48c-.15.24-1.29,2.13-1.62,2.88l-2.25.93c-.75-.27-2.82-.81-3.18-.9a.978.978,0,0,0-.93.27L3.76,5.13a.978.978,0,0,0-.27.93c.06.27.6,2.4.9,3.18l-.93,2.25c-.72.33-2.58,1.44-2.88,1.62a.994.994,0,0,0-.48.84v2.07a.994.994,0,0,0,.48.84c.24.15,2.13,1.29,2.88,1.62l.93,2.25c-.27.75-.81,2.82-.9,3.18a.978.978,0,0,0,.27.93l1.47,1.47a.978.978,0,0,0,.93.27c.27-.06,2.4-.6,3.18-.9l2.25.93c.33.72,1.44,2.58,1.62,2.88a1.007,1.007,0,0,0,.87.48h2.07a.994.994,0,0,0,.84-.48c.15-.24,1.29-2.13,1.62-2.88l2.25-.93c.75.27,2.82.81,3.18.9a.978.978,0,0,0,.93-.27l1.47-1.47a.978.978,0,0,0,.27-.93c-.06-.27-.6-2.4-.9-3.18l.93-2.25c.72-.33,2.58-1.44,2.88-1.62a1.007,1.007,0,0,0,.48-.87V13.92A1.1,1.1,0,0,0,29.59,13.11ZM15.07,21.54A6.54,6.54,0,1,1,21.61,15,6.555,6.555,0,0,1,15.07,21.54Z" transform="translate(-0.1)"/></svg>