<svg xmlns="http://www.w3.org/2000/svg" width="44.236" height="40" viewBox="0 0 44.236 40"><defs><style>.a{fill:#2699fb;}</style></defs><path class="a" d="M55.415,23.392a3.175,3.175,0,0,0-2.468-1.951,3.626,3.626,0,0,0-3.386,1.607,21.717,21.717,0,0,1-6.829,5.222c-.344-1.263-1.32-2.353-3.329-3.156A4.352,4.352,0,0,0,37.509,22.3a4.158,4.158,0,0,0-2.468-.689,4.887,4.887,0,0,0-1.492-2.41,5.184,5.184,0,0,0-4.534-1.377c-3.673.574-7,4.706-8.551,6.887a3.71,3.71,0,0,1-.23-1.148c-.8-6.829-3.615-8.264-5.911-8.264h-.057a2.523,2.523,0,0,0-2.009.861c-.8.918-1.033,2.525-.746,5.05a41.377,41.377,0,0,1,.344,7.116,48.26,48.26,0,0,0-.115,7v.344a17.26,17.26,0,0,0,1.779,7,13.043,13.043,0,0,1-1.607,5.165.854.854,0,0,0,.344,1.148,1.064,1.064,0,0,0,.4.115.827.827,0,0,0,.746-.459,21.162,21.162,0,0,0,1.492-3.9A10.089,10.089,0,0,0,16.5,46.233,7.7,7.7,0,0,0,21.153,47.9a6.128,6.128,0,0,0,1.435-.172c.057.057.057.115.115.172a9.54,9.54,0,0,0,4.132,2.7,20.408,20.408,0,0,0-3.214,3.329.891.891,0,0,0,.172,1.205.926.926,0,0,0,.517.172A.818.818,0,0,0,25,54.956a22.033,22.033,0,0,1,4.189-4.017,10.036,10.036,0,0,0,3.615-.976c3.042-1.549,5.165-4.419,7.346-7.518a48.593,48.593,0,0,1,3.788-4.878C54.955,30.852,56.275,25.4,55.415,23.392Zm-15.9,3.615c1.664.861,2.009,2.066,1.435,4.419-.689,2.927-4.993,8.149-6.829,8.207-.4,0-1.435.057-1.951-2.238a4.788,4.788,0,0,0,.689-.459C35.558,34.927,39,30.508,39.518,27.007Zm-5.567.516a10.556,10.556,0,0,0,1.32-4.247,2.32,2.32,0,0,1,1.377.459,2.77,2.77,0,0,1,1.205,2.123c.344,2.64-2.984,7.518-5.968,9.756-1.377,1.033-2.3,1.148-2.7.976-.918-.4-.918-1.951-.861-2.525A22.223,22.223,0,0,0,33.951,27.524Zm9.182,8.494-.172.172A46.913,46.913,0,0,0,39,41.3c-2.066,2.927-4.075,5.681-6.714,7a6.072,6.072,0,0,1-7.69-1.263A10.2,10.2,0,0,0,27.064,45.2a.852.852,0,1,0-1.205-1.205c-1.779,1.779-4.591,3.329-8.034.746-3.615-2.7-3.96-7.346-4.132-9.354l-.057-.344a43.669,43.669,0,0,1,.115-6.657,38.441,38.441,0,0,0-.344-7.518c-.344-2.525.057-3.386.287-3.673a.86.86,0,0,1,.689-.287h0c2.812,0,3.845,3.673,4.189,6.772a8.293,8.293,0,0,0,1.09,3.156.056.056,0,0,0,.057.057,7.469,7.469,0,0,0,1.033,1.32.853.853,0,1,0,1.263-1.148,6.079,6.079,0,0,1-.574-.689c1.377-2.123,4.706-6.428,7.92-6.944a3.707,3.707,0,0,1,3.1.976c1.951,1.722.8,4.648,0,6.313-2.123,4.075-6.141,7.174-7.4,6.829a1.218,1.218,0,0,1-.8-.861,2.131,2.131,0,0,1,.172-1.836c.516-.746,1.148-1.664,1.836-2.525A36.721,36.721,0,0,0,28.557,25a.86.86,0,0,0-1.549-.746,35.886,35.886,0,0,1-2.123,3.042c-.631.861-1.32,1.779-1.836,2.582a3.709,3.709,0,0,0-.344,3.386,3,3,0,0,0,2.009,1.894,1.769,1.769,0,0,0,.574.057,4.549,4.549,0,0,0,1.435-.287,3.558,3.558,0,0,0,1.894,3.156,2.251,2.251,0,0,0,1.033.23,3.9,3.9,0,0,0,1.09-.172c.689,2.582,2.238,3.214,3.5,3.214h.115c2.927-.057,7.69-6.255,8.436-9.527a10.4,10.4,0,0,0,.287-1.779A23.358,23.358,0,0,0,51.053,24.2c.459-.516,1.148-1.148,1.836-1.033a1.529,1.529,0,0,1,1.148.976C54.209,25,53.578,29.7,43.133,36.017Z" transform="translate(-11.394 -15.3)"/></svg>