<svg xmlns="http://www.w3.org/2000/svg" width="75.081" height="75" viewBox="0 0 75.081 75"><defs><style>.a{fill:#f1f9ff;}.b{fill:#7fc4fd;}.c{fill:#fff;}.d{fill:none;}.e{fill:#2f8dde;}</style></defs><g transform="translate(-1 -1)"><circle class="a" cx="37.5" cy="37.5" r="37.5" transform="translate(1.08 1)"/><path class="b" d="M1.08,38.5A37.5,37.5,0,1,0,75,29.5H2.18a37.6,37.6,0,0,0-1.1,9Z"/><path class="c" d="M64.59,32.41l-.19-.23a.22.22,0,0,0,.19.23Z"/><path class="c" d="M17.14,32.5Z"/><path class="c" d="M57.3,24.57h0v-.06Z"/><path class="c" d="M66.87,25.21c-2.51-.29-3.18-1.37-5.78-.93a21.731,21.731,0,0,0-3.78.29c-.57.85-1.59,0-2.27.72l-.26-.48c-.24.25-.51.41-.75.15v-.14c-.35.37-.75.15-.92.33V25l-.43.06.08-.2a2.1,2.1,0,0,1-1.8.24v.58c-1.19-.65-1.62.55-2.7-.22v-.14c-1.36,1.53-2.14-1-3.54.41.18-.18-.07-.3-.06-.44-.64.17-1.33.26-1.34,1.4-.47,0-.38-.36-.44-.8a.75.75,0,0,1-.77.74l.17-.2-1.05.17.21.95c-.56-.27-.15-1.15-.68-.93v.79c-.77-.16-1.22-1.34-2-1.92-3.09-.33-6.41,1.66-9.29.29l-.13-.59c-.05-.86-.79,1.27-.9.47l-.33.4c-.1-.16-.3-.32-.13-.51-.31,0-.32.1-.54.36l-.33-.53C26,25,25,26,23.7,25.8c-1.54-1.09-4.45-.09-6.12.49-2.35,1.28-5.09-2.13-7.5-.67-.08-.12-.28.15-.28.25l-2.21-.12S-3.1,25.42,5,32.53v.18c1.21.46,2,.56,2.8-.38.13,1.15,1,.12,1.27.49v.09c.73-.88,1.51.74,2.22,0,0,.09,0,.4-.2.42.51-.14,1.22-.4,1.26.27,1.23-.17,3,.14,3.75-.93l-.1.13c.45-.72.58-.11,1.08-.47,0,.08.07.13.06.17.49-.72,1.43-.12,1.83-.42v.45l1-.11-.37-.09c.13-1.23.74.76,1.45,0,.66.16,1.35-2.54,2-1.94.32-.58-.29.93.2.49,0,.63-.23.4-.11.91.49-.31.8.65,1.39.22v.49c.77-.9,1.46.66,2-.21.8-.41.53,1.48,1.37.51l.32.67c.36.11.26-.83.65-.5,0,.42.5.34.27.74.9.66,1.82-.94,3,.18.26-.82.85-.33,1-1,0,.36,1.19.05.52.83,0,.07-.15.06-.15-.08l-.08.49c.68.92,1.22-.51,1.89-.37-.2-.16-.46-.12-.28-.46l.61.07-.12.41.92.24-.13-.51c.45.27.61,1.13,1.12.41.23-.4-.43-.69.05-.85a8.56,8.56,0,0,0,2.27,1c-.07-.58.14-.56.35-.67v.49c.82-.69.3,1.1,1.11.55l-.07.35.22-1c.73-1,.39,1,1.2-.32-.32.09-.15-1.1.25-.88l-.1.48c.22-.1.29-.3.44-.2-.14.26-.07.7.25.61l-.22.61.61-.89c.47.52,1.21-.13,1.41.55,0,0,1,.33,1.24-.41-.2.46.35.63.19,1.18.27-.53,1-1,1.35-.4l-.06.07c1.14.56,2-.78,3-.09,0-.58.5-.27.36-1,1.07-.73,1.94,1.5,2.32-.79.49-.12.58.54.83.66l-.12.12a5.19,5.19,0,0,1,1.84-.16c.34-.22.39-1.28,1-1-.19.43,0,.35.28.35-.15.06-.19.22.11.5a.74.74,0,0,1,.16-.28s0,.06,0,.11c.38-.15.31-.28.14-.34a.62.62,0,0,0-.06-.26c.39.54,1.08,0,1.13.68,1.13-.16,1.94-.91,2.88-1.19a.74.74,0,0,1-.39.84l.67-.13c0,.53-.39.31-.59.41.79.87,1.63-.86,2.56-.07l.2-.42.05.07a.85.85,0,0,1,.35-.6c.13.47,0,1.08.45,1.05.36.45,1-.23,1.51-.48-.26-.08-.17-.34-.06-.5s.36.45.54.25v.63c-.09-.6.6-.64.69-.9.13.47-.36.4-.42.75l1.39-.08c.49-.48-.09-.6.14-1.15.44-.13.86-.57,1.36-.19l-.15-.56a1.33,1.33,0,0,1,1.85.2c6.1-4.55,1.29-6.22,1.29-6.22C71,23.14,69.72,24.77,66.87,25.21Z"/><path class="a" d="M42.57,60.56c-16.26-1.9-29.76-.64-30.17,2.83S24.85,71.2,41.1,73.1c3.45.4,6.78.66,9.89.79a37.42,37.42,0,0,0,13.72-8.51C59.47,63.4,51.54,61.61,42.57,60.56Z"/><circle class="d" cx="37.5" cy="37.5" r="37.5" transform="translate(1 1)"/><path class="a" d="M35.43,25.76a2.88,2.88,0,0,1,2-1.14,3.23,3.23,0,0,1,.53,0c2.46.43,3.21,2.79,2.87,4.8S39.11,33.38,36.76,33a2.83,2.83,0,0,1-2.35-1.87,5.85,5.85,0,0,1,1.02-5.37Z"/><path class="a" d="M33,50.3a2.4,2.4,0,0,1-.21-1.42l.19-6.2a9.06,9.06,0,0,1,.34-2.62,9.08,9.08,0,0,1,1.56-2.41,9.74,9.74,0,0,0,1.81-3,5,5,0,0,0,.65.07,4.64,4.64,0,0,0,2.6-.79A34.14,34.14,0,0,1,41.47,51a.82.82,0,0,0,.39.84c1.6.94,3.76,4.14,4.47,5.2.92,1.36.88,5.65.87,7.49v.61a2.11,2.11,0,0,1-.46,1.46c-.78.84-2.62.28-2.62-1.58a17.14,17.14,0,0,0-.47-3.8A7,7,0,0,0,41,57.3a12.4,12.4,0,0,0-1.5-.9c-.41-.23-.82-.45-1.21-.72A6.32,6.32,0,0,1,36,51.23a4.66,4.66,0,0,0,1.1-2.58,12.33,12.33,0,0,0,0-2.1v-.92a21.11,21.11,0,0,1,.47-3.32.83.83,0,0,0-.63-1,.84.84,0,0,0-1,.63,23.54,23.54,0,0,0-.5,3.67c0,.33,0,.66,0,1a12.46,12.46,0,0,1,0,1.84,2.72,2.72,0,0,1-1,1.94A1.16,1.16,0,0,1,33,50.3Z"/><path class="a" d="M29.14,65c.06-.11.23-.39.46-.8,1.19-2,4-6.72,5.55-9.92A7.25,7.25,0,0,0,37.39,57l.27.16c-.65,1.09-1.32,2.11-2,3.1-1,1.51-1.93,3-2.72,4.45-1.22,2.32-2.39,2.61-2.84,2.62a1.23,1.23,0,0,1-1.08-.59A1.72,1.72,0,0,1,29.14,65Z"/><path class="e" d="M30.1,69h.09c.91,0,2.69-.52,4.24-3.5.76-1.43,1.67-2.83,2.64-4.31.66-1,1.34-2,2-3.16a9.58,9.58,0,0,1,1,.59,5.31,5.31,0,0,1,2,3,15,15,0,0,1,.4,3.38,3.4,3.4,0,0,0,3.33,3.62,2.89,2.89,0,0,0,2.13-.92,3.64,3.64,0,0,0,.91-2.58v-.6c0-3.45-.09-6.85-1.15-8.42a24.12,24.12,0,0,0-4.52-5.38,35.82,35.82,0,0,0-2-18.07A6.68,6.68,0,0,0,42.46,30c.61-2.86-.55-6.14-3.92-6.88a4.32,4.32,0,0,0-4.2,1.5,7.53,7.53,0,0,0-1.57,7,4.41,4.41,0,0,0,2.31,2.68,8.72,8.72,0,0,1-1.51,2.4,10.4,10.4,0,0,0-1.82,2.89,10.22,10.22,0,0,0-.44,3.12l-.19,6.2a3.88,3.88,0,0,0,.52,2.44,2.48,2.48,0,0,0,2.06,1,3.31,3.31,0,0,0,.62-.09c-1.21,2.87-4.89,9.11-6.13,11.21l-.48.83a3.34,3.34,0,0,0-.05,3.41A2.81,2.81,0,0,0,30.1,69Zm5.33-43.24a2.9,2.9,0,0,1,2-1.14,3.23,3.23,0,0,1,.53,0c2.46.43,3.21,2.79,2.88,4.8S39.12,33.38,36.76,33a2.8,2.8,0,0,1-2.34-1.87,5.84,5.84,0,0,1,1.01-5.37ZM33,50.3a2.48,2.48,0,0,1-.21-1.42l.2-6.2a8.42,8.42,0,0,1,.34-2.62,8.79,8.79,0,0,1,1.55-2.41,9.55,9.55,0,0,0,1.81-3,4.93,4.93,0,0,0,.66.07,4.64,4.64,0,0,0,2.59-.79A34.14,34.14,0,0,1,41.47,51a.82.82,0,0,0,.39.84c1.6.94,3.76,4.14,4.47,5.2.92,1.36.88,5.65.87,7.49v.61a2.11,2.11,0,0,1-.46,1.46c-.78.84-2.62.28-2.62-1.58a16.56,16.56,0,0,0-.47-3.8A6.94,6.94,0,0,0,41,57.3a12.4,12.4,0,0,0-1.5-.9,13.13,13.13,0,0,1-1.2-.72A6.3,6.3,0,0,1,36,51.23a4.66,4.66,0,0,0,1.1-2.58,12.33,12.33,0,0,0,0-2.1c0-.31,0-.62,0-.92a21.51,21.51,0,0,1,.46-3.32.82.82,0,1,0-1.6-.35,22,22,0,0,0-.51,3.67v1a11.23,11.23,0,0,1,0,1.84,2.72,2.72,0,0,1-1,1.94A1.16,1.16,0,0,1,33,50.3ZM29.14,65l.47-.8c1.18-2,4-6.72,5.54-9.92A7.25,7.25,0,0,0,37.39,57l.28.16c-.66,1.09-1.33,2.11-2,3.1-1,1.51-1.93,3-2.72,4.45-1.21,2.32-2.39,2.61-2.84,2.62a1.24,1.24,0,0,1-1.08-.59A1.75,1.75,0,0,1,29.14,65Z"/><path class="a" d="M42,37s4.5,3.5,5.5,3.5c2,0,2.5,2.5.5,3.5a4.08,4.08,0,0,1-2.46-.12A18.84,18.84,0,0,1,43,43Z"/><path class="e" d="M41.47,37.53c1.17.91,2.37,1.8,3.62,2.61a7.62,7.62,0,0,0,2,1.06c.46.12.93,0,1.24.48.48.75-.28,1.58-1,1.71a5.92,5.92,0,0,1-2.54-.51c-.32-.1-.65-.27-1-.35-.68-.17-.15-.18-.1.25-.06-.55-.18-1.11-.28-1.66l-.72-4.32c-.16-.95-1.6-.55-1.44.4.31,1.87.54,3.78.93,5.63.18.8.61.92,1.38,1.21,1.48.56,3.61,1.38,5.1.43a2.74,2.74,0,0,0,1.25-2.92c-.34-1.34-1.32-1.47-2.44-1.8-1.74-.52-3.71-2.31-5-3.28C41.78,35.88,40.71,36.94,41.47,37.53Z"/></g></svg>