<svg xmlns="http://www.w3.org/2000/svg" width="31" height="30.949" viewBox="0 0 31 30.949"><defs><style>.a{fill:#fff;stroke:#fff;stroke-miterlimit:10;}</style></defs><g transform="translate(-12.574 -0.4)"><path class="a" d="M15.876.9A14.961,14.961,0,0,0,.9,15.875a1.4,1.4,0,0,0,2.793,0,12.1,12.1,0,1,1,2.986,8.089l.578-.433a1.211,1.211,0,0,0,.482-1.107,1.244,1.244,0,0,0-.722-.963L2.922,19.727a1.176,1.176,0,0,0-1.348.289,1.065,1.065,0,0,0-.289.915l.53,4.43a1.241,1.241,0,0,0,1.2,1.059,1.433,1.433,0,0,0,.722-.241l.77-.578a14.814,14.814,0,0,0,11.413,5.248A14.975,14.975,0,1,0,15.876.9Z" transform="translate(12.174 0)"/><g transform="translate(22.362 11.119)"><path class="a" d="M32.493,22.507a.757.757,0,0,0-.09-.224,1.113,1.113,0,0,0-.986-.583,1.193,1.193,0,0,0-.538.134l-5.646,2.778a1.244,1.244,0,0,0-.807,0l-3.854-1.434a1.113,1.113,0,0,0-.941,2.017l3.5,1.7a1.743,1.743,0,0,0,1.613,1.12.965.965,0,0,0,.493-.09,1.874,1.874,0,0,0,1.12-.986l5.512-3.137A1.118,1.118,0,0,0,32.493,22.507ZM25.1,27.257a.568.568,0,0,1-.269.045.969.969,0,0,1-.941-.672.979.979,0,0,1,1.882-.538A.97.97,0,0,1,25.1,27.257Z" transform="translate(-19.008 -21.7)"/></g></g></svg>