<svg xmlns="http://www.w3.org/2000/svg" width="31.005" height="18.922" viewBox="0 0 31.005 18.922"><defs><style>.a{fill:#7fc4fd;}</style></defs><path class="a" d="M21.053,974.371a9.246,9.246,0,0,0-6.572,3.168c-1.382,1.55-2.561,3.4-4.01,4.853a7.621,7.621,0,0,1-5.8,2.46.674.674,0,0,0,0,1.348h.034a9.265,9.265,0,0,0,6.74-2.831c1.618-1.584,2.8-3.505,4.078-4.92a7.436,7.436,0,0,1,8.021-2.325,7.6,7.6,0,0,1,4.853,6.134,6.26,6.26,0,0,0-4.887-.539,6.729,6.729,0,0,0-3.741,8.729,5.307,5.307,0,0,0,4.819,2.831h9.74a.674.674,0,0,0,0-1.348h-9.74c-2.056-.1-3.1-.944-3.64-2.09a4.877,4.877,0,0,1,.067-3.943,5.269,5.269,0,0,1,2.9-2.932c1.314-.472,2.932-.3,4.887,1.078a.7.7,0,0,0,.944-.169.677.677,0,0,0,.135-.438c-.337-4.482-2.831-7.515-5.931-8.628a7.359,7.359,0,0,0-2.427-.438A2.2,2.2,0,0,0,21.053,974.371Z" transform="translate(-4 -974.356)"/></svg>