<svg xmlns="http://www.w3.org/2000/svg" width="31.402" height="20.924" viewBox="0 0 31.402 20.924"><defs><style>.a{fill:#bce0fd;}</style></defs><path class="a" d="M.75,95.865H22.343a5.233,5.233,0,1,0-5.233-5.233h0a.656.656,0,0,0,1.313,0v-.025a3.926,3.926,0,1,1,3.926,3.951H.756a.657.657,0,0,0-.656.656A.647.647,0,0,0,.75,95.865Z" transform="translate(-0.094 -85.4)"/><path class="a" d="M18.974,320H.656a.653.653,0,1,0,0,1.307H18.974a1.963,1.963,0,1,1-1.963,1.988v-.031a.656.656,0,0,0-1.313,0h0A3.27,3.27,0,1,0,18.974,320Z" transform="translate(0 -305.609)"/><path class="a" d="M27.482,277.3H.656a.656.656,0,1,0,0,1.313H27.482a2.616,2.616,0,1,1-2.619,2.632v-.018a.656.656,0,1,0-1.313,0h0a3.926,3.926,0,1,0,3.932-3.926Z" transform="translate(0 -265.528)"/></svg>